<?xml version="1.0" encoding="UTF-8" standalone="no"?>
<!-- Created with Inkscape (http://www.inkscape.org/) -->

<svg
   width="264.58334mm"
   height="105.83335mm"
   viewBox="0 0 264.58334 105.83335"
   version="1.1"
   id="svg5"
   inkscape:version="1.1 (c68e22c387, 2021-05-23)"
   sodipodi:docname="Progetto-rikko-slide.svg"
   xmlns:inkscape="http://www.inkscape.org/namespaces/inkscape"
   xmlns:sodipodi="http://sodipodi.sourceforge.net/DTD/sodipodi-0.dtd"
   xmlns:xlink="http://www.w3.org/1999/xlink"
   xmlns="http://www.w3.org/2000/svg"
   xmlns:svg="http://www.w3.org/2000/svg">
  <sodipodi:namedview
     id="namedview7"
     pagecolor="#ffffff"
     bordercolor="#666666"
     borderopacity="1.0"
     inkscape:pageshadow="2"
     inkscape:pageopacity="0.0"
     inkscape:pagecheckerboard="0"
     inkscape:document-units="mm"
     showgrid="false"
     inkscape:zoom="3.9257124"
     inkscape:cx="698.34458"
     inkscape:cy="233.58817"
     inkscape:window-width="1920"
     inkscape:window-height="991"
     inkscape:window-x="-9"
     inkscape:window-y="-9"
     inkscape:window-maximized="1"
     inkscape:current-layer="layer1" />
  <defs
     id="defs2">
    <rect
       x="57.639008"
       y="145.5385"
       width="680.14032"
       height="108.07314"
       id="rect3826" />
    <linearGradient
       inkscape:collect="always"
       xlink:href="#linearGradient14453"
       id="linearGradient10708"
       x1="69.224968"
       y1="175.56093"
       x2="134.29628"
       y2="242.55408"
       gradientUnits="userSpaceOnUse"
       gradientTransform="translate(2.7557293,-90.309381)" />
    <linearGradient
       inkscape:collect="always"
       id="linearGradient14453">
      <stop
         style="stop-color:#00ff00;stop-opacity:1;"
         offset="0"
         id="stop14449" />
      <stop
         style="stop-color:#00ff00;stop-opacity:0;"
         offset="1"
         id="stop14451" />
    </linearGradient>
  </defs>
  <g
     inkscape:label="Livello 1"
     inkscape:groupmode="layer"
     id="layer1"
     transform="translate(32.455377,1.1922135)">
    <rect
       style="fill:none;fill-rule:evenodd;stroke:#22d03b;stroke-width:15.8623;stroke-miterlimit:4;stroke-dasharray:none;stroke-opacity:1"
       id="rect846"
       width="248.72104"
       height="89.971054"
       x="-24.524227"
       y="6.7389364"
       ry="20.683893"
       rx="20.683893" />
    <g
       id="g1285"
       transform="matrix(0.83333333,0,0,0.83333333,-39.271739,-46.726828)">
      <rect
         style="fill:url(#linearGradient10708);fill-opacity:1;fill-rule:evenodd;stroke:none;stroke-width:7.9375;stroke-miterlimit:4;stroke-dasharray:none;stroke-opacity:1"
         id="rect8056"
         width="79.375"
         height="79.375"
         x="65.300636"
         y="78.454048"
         ry="14.4"
         rx="14.4" />
      <text
         xml:space="preserve"
         style="font-size:10.5833px;line-height:1.25;font-family:sans-serif;-inkscape-font-specification:sans-serif;letter-spacing:0px;stroke-width:0.264583"
         x="75.800369"
         y="93.151222"
         id="text13074"><tspan
           sodipodi:role="line"
           id="tspan13072"
           style="stroke-width:0.264583"
           x="75.800369"
           y="93.151222">PROGETTO</tspan></text>
      <rect
         style="fill:#412449;fill-opacity:1;fill-rule:evenodd;stroke-width:0.264583"
         id="rect13672"
         width="34.507538"
         height="35.585896"
         x="98.540329"
         y="118.35339"
         ry="0"
         rx="0" />
      <rect
         style="fill:#800000;fill-opacity:1;fill-rule:evenodd;stroke-width:0.264583"
         id="rect19667"
         width="10.865854"
         height="23.637997"
         x="104.40865"
         y="130.29041" />
      <rect
         style="fill:#007eff;fill-opacity:1;fill-rule:evenodd;stroke-width:0.245985"
         id="rect10201-2"
         width="7"
         height="7"
         x="120.03702"
         y="130.39624"
         rx="0.47869155"
         ry="0.47869155" />
      <rect
         style="fill:#d40000;fill-rule:evenodd;stroke-width:0.176681"
         id="rect1389-2-0"
         width="6.9145894"
         height="30.231678"
         x="6.5391965"
         y="154.92555"
         transform="matrix(-0.62220715,0.78285265,0.77240488,0.63513046,0,0)" />
      <rect
         style="fill:#d40000;fill-rule:evenodd;stroke-width:0.178711"
         id="rect1389-2-1-8"
         width="6.9854937"
         height="30.616505"
         x="153.16951"
         y="-25.126423"
         transform="matrix(0.62665664,0.77929549,-0.77602726,0.63069937,0,0)" />
      <path
         style="fill:#d40000;fill-opacity:1;fill-rule:evenodd;stroke-width:0.264583"
         id="path1635-7"
         sodipodi:type="arc"
         sodipodi:cx="115.63236"
         sodipodi:cy="-119.42661"
         sodipodi:rx="10.777211"
         sodipodi:ry="6.963841"
         sodipodi:start="0"
         sodipodi:end="3.1047939"
         sodipodi:arc-type="slice"
         transform="scale(1,-1)"
         d="m 126.40957,-119.42661 a 10.777211,6.963841 0 0 1 -10.57892,6.96266 10.777211,6.963841 0 0 1 -10.9682,-6.70646 l 10.76991,-0.2562 z" />
      <path
         sodipodi:type="star"
         style="fill:#ffcc00;fill-rule:evenodd"
         id="path1131-6"
         inkscape:flatsided="false"
         sodipodi:sides="2"
         sodipodi:cx="246.32472"
         sodipodi:cy="474.05411"
         sodipodi:r1="30.055"
         sodipodi:r2="21.918451"
         sodipodi:arg1="1.2249218"
         sodipodi:arg2="2.7957181"
         inkscape:rounded="0"
         inkscape:randomized="0"
         transform="matrix(-0.00776876,0.12464023,-0.26446925,-0.0036613,209.64546,80.519669)"
         inkscape:transform-center-x="-2.7517879e-06"
         inkscape:transform-center-y="-2.8089606e-06"
         d="m 256.51395,502.32923 -30.80965,-20.84434 10.43119,-35.70591 30.80966,20.84434 z" />
      <path
         sodipodi:type="star"
         style="fill:#ffcc00;fill-rule:evenodd"
         id="path1131-8-4"
         inkscape:flatsided="false"
         sodipodi:sides="2"
         sodipodi:cx="246.32472"
         sodipodi:cy="474.05411"
         sodipodi:r1="30.055"
         sodipodi:r2="21.918451"
         sodipodi:arg1="1.2249218"
         sodipodi:arg2="2.7957181"
         inkscape:rounded="0"
         inkscape:randomized="0"
         transform="matrix(0.00776876,0.12464023,0.26446925,-0.0036613,-37.476583,80.481649)"
         inkscape:transform-center-x="2.8250112e-06"
         inkscape:transform-center-y="-2.8089606e-06"
         d="m 256.51395,502.32923 -30.80965,-20.84434 10.43119,-35.70591 30.80966,20.84434 z" />
      <path
         sodipodi:type="star"
         style="fill:#ffcc00;fill-rule:evenodd"
         id="path1131-9-91"
         inkscape:flatsided="false"
         sodipodi:sides="2"
         sodipodi:cx="246.32472"
         sodipodi:cy="474.05411"
         sodipodi:r1="30.055"
         sodipodi:r2="21.918451"
         sodipodi:arg1="1.2249218"
         sodipodi:arg2="2.7957181"
         inkscape:rounded="0"
         inkscape:randomized="0"
         transform="matrix(-0.09687485,0.07880865,-0.17664547,-0.19685977,190.5399,179.10327)"
         inkscape:transform-center-x="-1.7394529e-06"
         inkscape:transform-center-y="1.7743314e-06"
         d="m 256.51395,502.32923 -30.80965,-20.84434 10.43119,-35.70591 30.80966,20.84434 z" />
      <path
         sodipodi:type="star"
         style="fill:#ffcc00;fill-rule:evenodd"
         id="path1131-9-9-8"
         inkscape:flatsided="false"
         sodipodi:sides="2"
         sodipodi:cx="246.32472"
         sodipodi:cy="474.05411"
         sodipodi:r1="30.055"
         sodipodi:r2="21.918451"
         sodipodi:arg1="1.2249218"
         sodipodi:arg2="2.7957181"
         inkscape:rounded="0"
         inkscape:randomized="0"
         transform="matrix(-0.09687485,-0.07880865,-0.17664547,0.19685977,196.83334,31.321969)"
         inkscape:transform-center-x="-1.7394529e-06"
         inkscape:transform-center-y="-2.219563e-06"
         d="m 256.51395,502.32923 -30.80965,-20.84434 10.43119,-35.70591 30.80966,20.84434 z" />
      <path
         sodipodi:type="star"
         style="fill:#ffcc00;fill-rule:evenodd"
         id="path1131-9-9-0-5"
         inkscape:flatsided="false"
         sodipodi:sides="2"
         sodipodi:cx="246.32472"
         sodipodi:cy="474.05411"
         sodipodi:r1="30.055"
         sodipodi:r2="21.918451"
         sodipodi:arg1="1.2249218"
         sodipodi:arg2="2.7957181"
         inkscape:rounded="0"
         inkscape:randomized="0"
         transform="matrix(-0.12243035,-0.02462418,-0.06463862,0.25647464,144.56764,-3.763909)"
         inkscape:transform-center-x="2.3717989e-06"
         inkscape:transform-center-y="-1.6929045e-06"
         d="m 256.51395,502.32923 -30.80965,-20.84434 10.43119,-35.70591 30.80966,20.84434 z" />
      <path
         sodipodi:type="star"
         style="fill:#ffcc00;fill-rule:evenodd"
         id="path1131-9-9-0-4-6"
         inkscape:flatsided="false"
         sodipodi:sides="2"
         sodipodi:cx="246.32472"
         sodipodi:cy="474.05411"
         sodipodi:r1="30.055"
         sodipodi:r2="21.918451"
         sodipodi:arg1="1.2249218"
         sodipodi:arg2="2.7957181"
         inkscape:rounded="0"
         inkscape:randomized="0"
         transform="matrix(-0.08642912,0.09014181,0.18183525,0.19207638,22.78248,-1.630779)"
         inkscape:transform-center-y="1.8738168e-06"
         d="m 256.51395,502.32923 -30.80965,-20.84434 10.43119,-35.70591 30.80966,20.84434 z" />
      <path
         sodipodi:type="star"
         style="fill:#ffcc00;fill-rule:evenodd"
         id="path1131-9-9-0-4-7-6"
         inkscape:flatsided="false"
         sodipodi:sides="2"
         sodipodi:cx="246.32472"
         sodipodi:cy="474.05411"
         sodipodi:r1="30.055"
         sodipodi:r2="21.918451"
         sodipodi:arg1="1.2249218"
         sodipodi:arg2="2.7957181"
         inkscape:rounded="0"
         inkscape:randomized="0"
         transform="matrix(-0.12101389,0.03084115,0.05284198,0.25916234,91.229877,-26.820353)"
         d="m 256.51395,502.32923 -30.80965,-20.84434 10.43119,-35.70591 30.80966,20.84434 z" />
      <circle
         style="fill:#ffcc00;fill-opacity:1;fill-rule:evenodd;stroke-width:1.0572"
         id="path54485"
         cx="86.146141"
         cy="107.79205"
         r="6.6145835" />
      <text
         xml:space="preserve"
         style="font-size:10.5833px;line-height:1.25;font-family:sans-serif;-inkscape-font-specification:sans-serif;letter-spacing:0px;stroke-width:0.264583"
         x="75.800369"
         y="150.23921"
         id="text69391"><tspan
           sodipodi:role="line"
           id="tspan69389"
           style="stroke-width:0.264583"
           x="75.800369"
           y="150.23921">R</tspan></text>
      <text
         xml:space="preserve"
         style="font-size:10.5833px;line-height:1.25;font-family:sans-serif;-inkscape-font-specification:sans-serif;letter-spacing:0px;stroke-width:0.264583"
         x="85.230293"
         y="150.23921"
         id="text72365"><tspan
           sodipodi:role="line"
           id="tspan72363"
           style="stroke-width:0.264583"
           x="85.230293"
           y="150.23921">I</tspan></text>
      <text
         xml:space="preserve"
         style="font-size:10.5833px;line-height:1.25;font-family:sans-serif;-inkscape-font-specification:sans-serif;letter-spacing:0px;stroke-width:0.264583"
         x="90.602074"
         y="150.23921"
         id="text73689"><tspan
           sodipodi:role="line"
           id="tspan73687"
           style="stroke-width:0.264583"
           x="90.602074"
           y="150.23921">K</tspan></text>
      <text
         xml:space="preserve"
         style="font-size:10.5833px;line-height:1.25;font-family:sans-serif;-inkscape-font-specification:sans-serif;letter-spacing:0px;fill:#ffcc00;stroke-width:0.264583"
         x="98.949341"
         y="150.23921"
         id="text74287"><tspan
           sodipodi:role="line"
           id="tspan74285"
           style="fill:#ffcc00;stroke-width:0.264583"
           x="98.949341"
           y="150.23921">K</tspan></text>
      <text
         xml:space="preserve"
         style="font-size:10.5833px;line-height:1.25;font-family:sans-serif;-inkscape-font-specification:sans-serif;letter-spacing:0px;fill:#ffcc00;stroke-width:0.264583"
         x="106.89224"
         y="150.37874"
         id="text75809"><tspan
           sodipodi:role="line"
           id="tspan75807"
           style="fill:#ffcc00;stroke-width:0.264583"
           x="106.89224"
           y="150.37874">O</tspan></text>
    </g>
    <path
       id="rect1284"
       style="fill:#782121;fill-rule:evenodd;stroke-width:0.174432"
       d="m 152.40712,52.035996 h 11.62837 v 0 c 0,0 -1.24433,9.553068 -1.74701,15.685446 -0.50269,6.132379 -1.11243,21.105951 -1.11243,21.105951 h -11.62837 c 0,0 0.40318,-12.979462 0.9175,-19.449393 0.46094,-5.798505 1.94194,-17.342004 1.94194,-17.342004 z"
       sodipodi:nodetypes="ccczccsc" />
    <path
       style="fill:#782121;stroke:none;stroke-width:0.264583px;stroke-linecap:butt;stroke-linejoin:miter;stroke-opacity:1"
       d="m 152.88784,64.992164 -4.29074,-2.997343 c 0,0 -5.52174,-2.978654 -7.43643,-5.359952 -2.26993,-2.823112 -7.81811,-13.479506 -7.81811,-13.479506 0,0 3.21599,11.51723 5.257,14.692661 1.54302,2.400656 7.14414,4.717829 7.14414,4.717829 0,0 -5.46071,-0.117625 -7.68332,-1.482746 -2.81062,-1.726276 -16.17541,-13.344712 -16.17541,-13.344712 0,0 5.19771,10.352008 9.57046,13.883892 1.6272,1.314293 3.70283,2.578315 5.8001,3.338361 3.00064,1.087427 6.02621,1.076672 8.75776,2.727417 2.33058,1.408425 5.6614,5.391803 5.6614,5.391803 l 1.21315,-7.413731 v 0"
       id="path1988"
       sodipodi:nodetypes="ccscscscsssccc" />
    <path
       style="fill:#782121;stroke:none;stroke-width:0.365012px;stroke-linecap:butt;stroke-linejoin:miter;stroke-opacity:1"
       d="m 159.07077,72.421903 8.16625,-4.210499 c 0,0 1.09639,-0.483756 2.86207,-1.038284 3.39294,-1.065582 10.51187,-1.946665 12.90867,-3.512897 4.32019,-2.823109 6.32232,-14.423071 6.32232,-14.423071 0,0 0.81901,12.86518 -3.06549,16.040611 -2.93671,2.400656 -13.59691,4.717829 -13.59691,4.717829 0,0 10.39296,-0.117625 14.62309,-1.482746 5.34925,-1.726276 12.8925,-12.131556 12.8925,-12.131556 0,0 -4.23149,9.971503 -6.47888,12.131556 -1.36881,1.315614 -3.09341,2.296726 -4.88181,2.933976 -5.69493,2.029236 -12.72047,2.019085 -18.35512,4.210162 -3.56886,1.387781 -9.08779,4.852623 -9.08779,4.852623 l -2.3089,-7.413731 v 0"
       id="path1988-5"
       sodipodi:nodetypes="ccsscscscsssccc" />
    <path
       style="fill:#782121;fill-opacity:1;stroke:none;stroke-width:0.264583px;stroke-linecap:butt;stroke-linejoin:miter;stroke-opacity:1"
       d="m 160.43636,59.735157 c 12.67073,-2.291517 18.87131,-8.761679 18.87131,-8.761679 l 4.44824,-5.930985 6.87454,-11.996761 -5.93097,4.852624 -8.76168,9.570448 -14.69266,5.526599 -2.69591,-0.134795 v 0 z"
       id="path4852"
       sodipodi:nodetypes="cccccccccc" />
    <path
       style="fill:#782121;fill-opacity:1;stroke:none;stroke-width:0.264583px;stroke-linecap:butt;stroke-linejoin:miter;stroke-opacity:1"
       d="m 161.24514,52.995403 c 0,0 -1.62092,-3.68089 -4.02543,-5.512188 -9.95965,-7.585356 -7.01549,-6.065704 -9.74822,-8.757841 -2.76979,-2.728637 -5.47604,-9.948912 -5.47604,-9.948912 0,0 0.6779,8.452711 2.11948,11.044621 1.82109,3.274254 5.37978,6.050117 6.93457,9.45889 1.16817,2.561132 3.3673,5.082493 3.3673,5.082493 z"
       id="path11685"
       sodipodi:nodetypes="csscsscc" />
    <path
       style="fill:#782121;stroke:none;stroke-width:0.264583px;stroke-linecap:butt;stroke-linejoin:miter;stroke-opacity:1;fill-opacity:1"
       d="m 160.43636,59.735157 9.30086,-14.423072 c 0,0 3.71121,-7.085424 5.5266,-10.648812 2.05235,-4.028498 6.06578,-12.131555 6.06578,-12.131555 0,0 -5.99911,4.819639 -8.3573,7.818114 -3.44525,4.380681 -8.2225,14.557866 -8.2225,14.557866 0,0 -0.38733,-5.074524 -0.94356,-7.548522 -0.8197,-3.645892 -1.22563,-7.687331 -3.50468,-10.64881 -2.05977,-2.676539 -8.49208,-5.526599 -8.49208,-5.526599 0,0 2.82342,4.254221 3.77426,6.604959 1.77346,4.384492 3.02779,9.04362 3.50467,13.749096 0.38099,3.759282 -0.53918,11.322786 -0.53918,11.322786 l -3.10029,5.257006 4.98742,1.617543"
       id="path13326"
       sodipodi:nodetypes="ccscscsscssccc" />
  </g>
</svg>
