<?xml version="1.0" encoding="UTF-8" standalone="no"?>
<!-- Created with Inkscape (http://www.inkscape.org/) -->

<svg
   width="264.58334mm"
   height="105.83334mm"
   viewBox="0 0 264.58334 105.83334"
   version="1.1"
   id="svg5"
   inkscape:version="1.1 (c68e22c387, 2021-05-23)"
   sodipodi:docname="Progetto-full-moon-slide-mono.svg"
   xmlns:inkscape="http://www.inkscape.org/namespaces/inkscape"
   xmlns:sodipodi="http://sodipodi.sourceforge.net/DTD/sodipodi-0.dtd"
   xmlns="http://www.w3.org/2000/svg"
   xmlns:svg="http://www.w3.org/2000/svg">
  <sodipodi:namedview
     id="namedview7"
     pagecolor="#ffffff"
     bordercolor="#666666"
     borderopacity="1.0"
     inkscape:pageshadow="2"
     inkscape:pageopacity="0.0"
     inkscape:pagecheckerboard="0"
     inkscape:document-units="mm"
     showgrid="false"
     inkscape:zoom="0.69397447"
     inkscape:cx="486.32913"
     inkscape:cy="417.88281"
     inkscape:window-width="1920"
     inkscape:window-height="991"
     inkscape:window-x="-9"
     inkscape:window-y="-9"
     inkscape:window-maximized="1"
     inkscape:current-layer="layer1" />
  <defs
     id="defs2">
    <rect
       x="57.639008"
       y="145.5385"
       width="680.14032"
       height="108.07314"
       id="rect3826" />
  </defs>
  <g
     inkscape:label="Livello 1"
     inkscape:groupmode="layer"
     id="layer1"
     transform="translate(23.638,-7.6251602)">
    <rect
       style="fill:none;fill-rule:evenodd;stroke:#293241;stroke-width:5.68009;stroke-miterlimit:4;stroke-dasharray:none;stroke-opacity:1"
       id="rect846"
       width="258.90323"
       height="100.15324"
       x="-20.797943"
       y="10.465214"
       ry="20.683893"
       rx="20.683893" />
    <rect
       style="fill:none;fill-rule:evenodd;stroke:#293241;stroke-width:2.64583;stroke-miterlimit:4;stroke-dasharray:none;stroke-opacity:1"
       id="rect846-6"
       width="240.58391"
       height="81.833908"
       x="-11.638282"
       y="19.624878"
       ry="20.683893"
       rx="20.683893" />
    <g
       id="g1035"
       transform="matrix(0.74143296,0,0,0.73789943,-28.775778,-26.306852)">
      <rect
         style="fill:none;fill-opacity:1;fill-rule:evenodd;stroke:#ee6c4d;stroke-width:2.64583;stroke-miterlimit:4;stroke-dasharray:none;stroke-opacity:1"
         id="rect8056"
         width="79.375"
         height="79.375"
         x="65.349083"
         y="78.502487"
         ry="16.262379"
         rx="16.184875" />
      <text
         xml:space="preserve"
         style="font-size:10.5833px;line-height:1.25;font-family:sans-serif;-inkscape-font-specification:sans-serif;letter-spacing:0px;fill:#293241;fill-opacity:1;stroke-width:0.264583"
         x="74.44503"
         y="93.711975"
         id="text13074"><tspan
           sodipodi:role="line"
           id="tspan13072"
           style="fill:#293241;fill-opacity:1;stroke-width:0.264583"
           x="74.44503"
           y="93.711975">PROGETTO</tspan></text>
      <path
         id="path89810"
         style="fill-rule:evenodd;stroke-width:0.189262"
         inkscape:transform-center-x="-4.7248784e-06"
         inkscape:transform-center-y="-6.9434196e-06"
         d="m 129.07794,115.25188 -3.19985,0.0946 3.05725,-5.89116 3.09817,5.80892 z"
         sodipodi:nodetypes="ccccc" />
      <rect
         style="fill:none;fill-rule:evenodd;stroke:#293241;stroke-width:1.09983;stroke-miterlimit:4;stroke-dasharray:none;stroke-opacity:1"
         id="rect88773"
         width="5.0387373"
         height="40.25626"
         x="126.4699"
         y="115.75714"
         ry="0"
         rx="0" />
      <rect
         style="fill:none;fill-rule:evenodd;stroke:#293241;stroke-width:1.11776;stroke-miterlimit:4;stroke-dasharray:none;stroke-opacity:1"
         id="rect88773-2"
         width="5.1922522"
         height="40.351055"
         x="98.073074"
         y="115.65291"
         ry="0"
         rx="0" />
      <rect
         style="fill:none;fill-rule:evenodd;stroke:#293241;stroke-width:1.26701;stroke-miterlimit:4;stroke-dasharray:none;stroke-opacity:1"
         id="rect89516"
         width="23.093498"
         height="20.597097"
         x="103.34492"
         y="135.33121" />
      <path
         id="rect88917"
         style="fill:#000000;fill-rule:evenodd;stroke-width:0.268076"
         d="m 114.99759,143.79679 c -2.7817,0 -5.02088,1.02366 -5.02088,2.29495 v 9.29453 h 10.04228 v -9.29453 c 0,-1.27129 -2.2397,-2.29495 -5.0214,-2.29495 z" />
      <rect
         style="fill:#000000;fill-rule:evenodd;stroke-width:0.232139"
         id="rect88963"
         width="2.6458333"
         height="2.6458333"
         x="106.76705"
         y="132.03961" />
      <rect
         style="fill:#000000;fill-rule:evenodd;stroke-width:0.232139"
         id="rect89063"
         width="2.6458333"
         height="2.6458333"
         x="111.26271"
         y="132.03961" />
      <rect
         style="fill:#000000;fill-rule:evenodd;stroke-width:0.232139"
         id="rect89065"
         width="2.6458333"
         height="2.6458333"
         x="115.75838"
         y="132.03961" />
      <rect
         style="fill:#000000;fill-rule:evenodd;stroke-width:0.232139"
         id="rect89067"
         width="2.6458333"
         height="2.6458333"
         x="120.25404"
         y="132.03961" />
      <rect
         style="fill:#000000;fill-rule:evenodd;stroke-width:0.232139"
         id="rect89067-6"
         width="2.6458333"
         height="2.6458333"
         x="97.494095"
         y="112.49425" />
      <rect
         style="fill:#000000;fill-rule:evenodd;stroke-width:0.232139"
         id="rect89067-6-6"
         width="2.6458333"
         height="2.6458333"
         x="101.1949"
         y="112.53088" />
      <path
         style="fill:#000000;fill-rule:evenodd;stroke-width:0.264583"
         id="path89197"
         sodipodi:type="arc"
         sodipodi:cx="128.91898"
         sodipodi:cy="-126.21416"
         sodipodi:rx="1.3117971"
         sodipodi:ry="6.941946"
         sodipodi:start="0"
         sodipodi:end="3.1415927"
         sodipodi:open="true"
         sodipodi:arc-type="chord"
         transform="scale(1,-1)"
         d="m 130.23077,-126.21416 a 1.3117971,6.941946 0 0 1 -0.6559,6.0119 1.3117971,6.941946 0 0 1 -1.31179,0 1.3117971,6.941946 0 0 1 -0.6559,-6.0119 z" />
      <path
         style="fill:#000000;fill-rule:evenodd;stroke-width:0.264583"
         id="path89197-2"
         sodipodi:type="arc"
         sodipodi:cx="100.75876"
         sodipodi:cy="-126.21416"
         sodipodi:rx="1.3118041"
         sodipodi:ry="6.941946"
         sodipodi:start="0"
         sodipodi:end="3.1415927"
         sodipodi:open="true"
         sodipodi:arc-type="chord"
         transform="scale(1,-1)"
         d="m 102.07056,-126.21416 a 1.3118041,6.941946 0 0 1 -0.6559,6.0119 1.3118041,6.941946 0 0 1 -1.3118,0 1.3118041,6.941946 0 0 1 -0.655906,-6.0119 z" />
      <rect
         style="fill:#000000;fill-rule:evenodd;stroke-width:0.116363"
         id="rect89932"
         width="0.69742936"
         height="3.3361821"
         x="128.60304"
         y="107.31082"
         rx="0"
         ry="0" />
      <rect
         style="fill:#000000;fill-rule:evenodd;stroke-width:0.169061"
         id="rect89932-8"
         width="3.6966197"
         height="1.3286134"
         x="128.60304"
         y="107.31082"
         rx="0"
         ry="0" />
      <rect
         style="fill:#000000;fill-rule:evenodd;stroke-width:0.169061"
         id="rect89932-8-5"
         width="3.6966197"
         height="1.3286134"
         x="130.0536"
         y="107.97229"
         rx="0"
         ry="0" />
      <circle
         style="fill:none;fill-rule:evenodd;stroke:#ee6c4d;stroke-width:0.915629;stroke-opacity:1"
         id="path90100"
         cx="82.220642"
         cy="106.6618"
         r="7.9375" />
      <path
         sodipodi:type="star"
         style="fill:#ffcc00;fill-rule:evenodd"
         id="path90222"
         inkscape:flatsided="false"
         sodipodi:sides="6"
         sodipodi:cx="264.15588"
         sodipodi:cy="724.70923"
         sodipodi:r1="6.287519"
         sodipodi:r2="4.5853491"
         sodipodi:arg1="1.6926388"
         sodipodi:arg2="2.2162375"
         inkscape:rounded="0"
         inkscape:randomized="0"
         transform="matrix(0.26458333,0,0,0.26458333,11.004539,-90.388904)"
         inkscape:transform-center-y="-2.4156974e-06"
         d="m 263.39169,730.95013 -1.99413,-2.57797 -3.02856,-1.20429 1.23553,-3.01595 -0.47133,-3.22495 3.22965,-0.43798 2.55723,-2.02067 1.99412,2.57797 3.02856,1.2043 -1.23552,3.01595 0.47133,3.22495 -3.22965,0.43798 z" />
      <path
         sodipodi:type="star"
         style="fill:#ffcc00;fill-rule:evenodd"
         id="path90222-2"
         inkscape:flatsided="false"
         sodipodi:sides="6"
         sodipodi:cx="264.15588"
         sodipodi:cy="724.70923"
         sodipodi:r1="6.287519"
         sodipodi:r2="4.5853491"
         sodipodi:arg1="1.6926388"
         sodipodi:arg2="2.2162375"
         inkscape:rounded="0"
         inkscape:randomized="0"
         transform="matrix(0.26458333,0,0,0.26458333,9.6734378,-80.616255)"
         inkscape:transform-center-y="-2.4156974e-06"
         d="m 263.39169,730.95013 -1.99413,-2.57797 -3.02856,-1.20429 1.23553,-3.01595 -0.47133,-3.22495 3.22965,-0.43798 2.55723,-2.02067 1.99412,2.57797 3.02856,1.2043 -1.23552,3.01595 0.47133,3.22495 -3.22965,0.43798 z" />
      <path
         sodipodi:type="star"
         style="fill:#ffcc00;fill-rule:evenodd"
         id="path90246"
         inkscape:flatsided="false"
         sodipodi:sides="6"
         sodipodi:cx="262.6275"
         sodipodi:cy="725.72815"
         sodipodi:r1="4.6130371"
         sodipodi:r2="3.3641865"
         sodipodi:arg1="0.76698446"
         sodipodi:arg2="1.2905832"
         inkscape:rounded="0"
         inkscape:randomized="0"
         transform="matrix(0.26458333,0,0,0.26458333,9.9261781,-86.277654)"
         inkscape:transform-center-y="-2.4190939e-06"
         d="m 265.94892,728.92945 -2.39102,0.0317 -2.04209,1.24411 -1.22294,-2.05484 -2.09848,-1.14646 1.16808,-2.08652 -0.0564,-2.39056 2.39101,-0.0317 2.0421,-1.24411 1.22294,2.05484 2.09848,1.14646 -1.16808,2.08651 z" />
      <path
         sodipodi:type="star"
         style="fill:#ffcc00;fill-rule:evenodd"
         id="path90246-8"
         inkscape:flatsided="false"
         sodipodi:sides="6"
         sodipodi:cx="262.6275"
         sodipodi:cy="725.72815"
         sodipodi:r1="4.6130371"
         sodipodi:r2="3.3641865"
         sodipodi:arg1="0.76698446"
         sodipodi:arg2="1.2905832"
         inkscape:rounded="0"
         inkscape:randomized="0"
         transform="matrix(0.26458333,0,0,0.26458333,16.345793,-80.71735)"
         inkscape:transform-center-y="-2.4190939e-06"
         d="m 265.94892,728.92945 -2.39102,0.0317 -2.04209,1.24411 -1.22294,-2.05484 -2.09848,-1.14646 1.16808,-2.08652 -0.0564,-2.39056 2.39101,-0.0317 2.0421,-1.24411 1.22294,2.05484 2.09848,1.14646 -1.16808,2.08651 z" />
      <path
         sodipodi:type="star"
         style="fill:#ffcc00;fill-rule:evenodd"
         id="path90372"
         inkscape:flatsided="false"
         sodipodi:sides="6"
         sodipodi:cx="317.77673"
         sodipodi:cy="739.22888"
         sodipodi:r1="16.76005"
         sodipodi:r2="12.222736"
         sodipodi:arg1="0.42285393"
         sodipodi:arg2="0.9464527"
         inkscape:rounded="0"
         inkscape:randomized="0"
         transform="matrix(0.1841059,0,0,0.17162159,27.395481,-20.994928)"
         inkscape:transform-center-y="-4.4061743e-06"
         d="m 333.06058,746.10661 -8.13886,3.03915 -5.45935,6.75819 -6.70142,-5.52889 -8.58243,-1.34884 1.43745,-8.56804 -3.12309,-8.10703 8.13887,-3.03915 5.45935,-6.75819 6.70141,5.5289 8.58244,1.34884 -1.43746,8.56804 z" />
      <text
         xml:space="preserve"
         style="font-size:8.46667px;line-height:1.25;font-family:sans-serif;-inkscape-font-specification:sans-serif;letter-spacing:0px;fill:#293241;fill-opacity:1;stroke-width:0.264583"
         x="71.486176"
         y="138.64136"
         id="text92726"><tspan
           sodipodi:role="line"
           id="tspan92724"
           style="font-size:8.46667px;fill:#293241;fill-opacity:1;stroke-width:0.264583"
           x="71.486176"
           y="138.64136">FULL</tspan></text>
      <text
         xml:space="preserve"
         style="font-size:8.46667px;line-height:1.25;font-family:sans-serif;-inkscape-font-specification:sans-serif;letter-spacing:0px;fill:#293241;fill-opacity:1;stroke-width:0.264583"
         x="68.845192"
         y="147.91029"
         id="text92726-6"><tspan
           sodipodi:role="line"
           id="tspan92724-0"
           style="font-size:8.46667px;fill:#293241;fill-opacity:1;stroke-width:0.264583"
           x="68.845192"
           y="147.91029">MOON</tspan></text>
    </g>
  </g>
</svg>
